<svg xmlns="http://www.w3.org/2000/svg" width="24" height="24.042" viewBox="0 0 24 24.042"><defs><style>.a{fill:#666;}</style></defs><g transform="translate(-1 -0.979)"><path class="a" d="M3,25.021H23a2,2,0,0,0,2-2v-19a2,2,0,0,0-2-2H20.99v2.04a3,3,0,0,1-6,0V2.021h-4v2.04a3,3,0,1,1-6,0V2.021H3a2.006,2.006,0,0,0-2,2v19A2.006,2.006,0,0,0,3,25.021Zm0-16H23v14H3Z"/><path class="a" d="M6.988,1.979V4.063a1,1,0,0,0,2,0V1.979a1,1,0,0,0-2,0Z"/><path class="a" d="M16.988,1.979V4.063a1,1,0,0,0,2,0V1.979a1,1,0,0,0-2,0Z"/><rect class="a" width="4" height="4" transform="translate(5 11.021)"/><rect class="a" width="4" height="4" transform="translate(5 17.021)"/><rect class="a" width="4" height="4" transform="translate(11 11.021)"/><rect class="a" width="4" height="4" transform="translate(11 17.021)"/><rect class="a" width="4" height="4" transform="translate(17 11.021)"/><rect class="a" width="4" height="4" transform="translate(17 17.021)"/></g></svg>